<svg version="1.2" baseProfile="tiny-ps" xmlns="http://www.w3.org/2000/svg" viewBox="0 0 29 24" width="29" height="24">
	<title>Footer</title>
	<style>
		tspan { white-space:pre }
		.shp0 { fill: #424242 } 
	</style>
	<g id="Footer">
		<path id="fa-twitter" class="shp0" d="M29 2.85C27.94 3.32 26.78 3.66 25.58 3.79C26.81 3.04 27.75 1.86 28.2 0.45C27.05 1.15 25.77 1.65 24.42 1.91C23.34 0.73 21.79 0 20.08 0C16.78 0 14.13 2.72 14.13 6.06C14.13 6.53 14.19 7 14.28 7.45C9.35 7.18 4.95 4.78 2.02 1.11C1.5 2.01 1.21 3.04 1.21 4.16C1.21 6.26 2.26 8.12 3.86 9.21C2.88 9.17 1.96 8.89 1.17 8.44C1.17 8.46 1.17 8.5 1.17 8.51C1.17 11.46 3.22 13.89 5.94 14.46C5.44 14.59 4.91 14.66 4.37 14.66C3.99 14.66 3.62 14.63 3.25 14.57C4.01 16.97 6.2 18.71 8.81 18.77C6.77 20.4 4.21 21.36 1.43 21.36C0.93 21.36 0.47 21.34 -0.01 21.28C2.63 23.01 5.76 24 9.12 24C20.06 24 26.04 14.78 26.04 6.77C26.04 6.51 26.04 6.25 26.02 5.98C27.18 5.12 28.2 4.05 29 2.85Z" />
	</g>
</svg>